<svg width="26" height="25" viewBox="0 0 26 25" fill="none" xmlns="http://www.w3.org/2000/svg">
<g opacity="0.1">
<path d="M4.28349 13.7768H18.6201L12.3567 20.0403C11.8561 20.5408 11.8561 21.3623 12.3567 21.8628C12.4754 21.9818 12.6165 22.0762 12.7717 22.1406C12.927 22.205 13.0935 22.2382 13.2615 22.2382C13.4296 22.2382 13.5961 22.205 13.7514 22.1406C13.9066 22.0762 14.0477 21.9818 14.1664 21.8628L22.6246 13.4046C22.7436 13.2859 22.838 13.1448 22.9024 12.9896C22.9668 12.8343 23 12.6678 23 12.4997C23 12.3317 22.9668 12.1652 22.9024 12.0099C22.838 11.8547 22.7436 11.7136 22.6246 11.5949L14.1664 3.13665C14.0476 3.01782 13.9065 2.92356 13.7513 2.85925C13.596 2.79494 13.4296 2.76184 13.2615 2.76184C13.0935 2.76184 12.9271 2.79494 12.7718 2.85925C12.6166 2.92356 12.4755 3.01782 12.3567 3.13665C12.2379 3.25547 12.1436 3.39655 12.0793 3.5518C12.015 3.70706 11.9819 3.87346 11.9819 4.04151C11.9819 4.20956 12.015 4.37596 12.0793 4.53122C12.1436 4.68648 12.2379 4.82755 12.3567 4.94638L18.6201 11.2098H4.28349C3.57757 11.2098 3 11.7874 3 12.4933C3 13.1993 3.57757 13.7768 4.28349 13.7768Z" fill="#747476"/>
</g>
</svg>
